<svg width="130" height="65" viewBox="0 0 130 65" fill="none" xmlns="http://www.w3.org/2000/svg">
<path d="M86.1446 50.6426L79.4879 32.3695L86.1446 14.0964L65.261 19.9209L44.3775 14.0964L51.0341 32.3695L44.3775 50.6426L65.261 44.818L86.1446 50.6426ZM65.3916 32.4266H65.261H65.3916ZM65.3263 32.4266V32.4837V32.4266Z" fill="#C4DFF9"/>
<path d="M77.7305 38.8653L65.261 65V32.6305L77.7305 38.8653Z" fill="#6194F7"/>
<path d="M52.2695 38.8653L65.261 64.9697V32.6305L52.2695 38.8653Z" fill="#084F93"/>
<path d="M77.7305 26.1044L65.261 1.14441e-05V32.6305L77.7305 26.1044Z" fill="#084F93"/>
<path d="M52.2695 26.1044L65.261 0V32.6305L52.2695 26.1044Z" fill="#6194F7"/>
<path d="M77.7305 38.8653L129.939 32.3695L65.261 32.6305L77.7305 38.8653Z" fill="#084F93"/>
<path d="M77.7305 26.1044L130 32.3695L65.261 32.6305L77.7305 26.1044Z" fill="#6194F7"/>
<path d="M77.7305 26.1044L130 32.3695L65.261 32.6305L77.7305 26.1044Z" fill="#6194F7"/>
<path d="M52.2695 38.8653L0.0605469 32.3695L65.261 32.6305L52.2695 38.8653Z" fill="#6194F7"/>
<path d="M52.2695 26.1044L7.62939e-06 32.3695L65.261 32.6305L52.2695 26.1044Z" fill="#084F93"/>
</svg>
